<mxfile host="Electron" modified="2023-10-31T23:46:22.888Z" agent="Mozilla/5.0 (Windows NT 10.0; Win64; x64) AppleWebKit/537.36 (KHTML, like Gecko) draw.io/22.0.3 Chrome/114.0.5735.289 Electron/25.8.4 Safari/537.36" etag="pHt7AhWWMD-RThRq5og3" version="22.0.3" type="device">
  <diagram name="Page-1" id="JwzTPjatcyHrmAoiyOdx">
    <mxGraphModel dx="4747" dy="1883" grid="1" gridSize="10" guides="1" tooltips="1" connect="1" arrows="1" fold="1" page="1" pageScale="1" pageWidth="850" pageHeight="1100" math="0" shadow="0">
      <root>
        <mxCell id="0" />
        <mxCell id="1" parent="0" />
        <mxCell id="GCB3gknYHZBL_iumqEGb-74" value="Is a" style="edgeStyle=orthogonalEdgeStyle;rounded=0;orthogonalLoop=1;jettySize=auto;html=1;exitX=0;exitY=0.5;exitDx=0;exitDy=0;fontColor=#080808;labelBackgroundColor=none;" parent="1" source="GCB3gknYHZBL_iumqEGb-2" target="GCB3gknYHZBL_iumqEGb-56" edge="1">
          <mxGeometry relative="1" as="geometry" />
        </mxCell>
        <mxCell id="GCB3gknYHZBL_iumqEGb-2" value="AItemActor" style="rounded=0;whiteSpace=wrap;html=1;fillColor=#fff2cc;strokeColor=#d6b656;fontColor=#080808;labelBackgroundColor=none;" parent="1" vertex="1">
          <mxGeometry x="290" y="160" width="120" height="60" as="geometry" />
        </mxCell>
        <mxCell id="GCB3gknYHZBL_iumqEGb-14" value="Is" style="edgeStyle=orthogonalEdgeStyle;rounded=0;orthogonalLoop=1;jettySize=auto;html=1;exitX=0;exitY=0.5;exitDx=0;exitDy=0;entryX=1;entryY=0.5;entryDx=0;entryDy=0;fontColor=#080808;labelBackgroundColor=none;" parent="1" source="GCB3gknYHZBL_iumqEGb-3" target="GCB3gknYHZBL_iumqEGb-2" edge="1">
          <mxGeometry relative="1" as="geometry" />
        </mxCell>
        <mxCell id="GCB3gknYHZBL_iumqEGb-3" value="ABaseRobotPart" style="rounded=0;whiteSpace=wrap;html=1;fillColor=#fff2cc;strokeColor=#d6b656;fontColor=#080808;labelBackgroundColor=none;" parent="1" vertex="1">
          <mxGeometry x="570" y="250" width="120" height="60" as="geometry" />
        </mxCell>
        <mxCell id="GCB3gknYHZBL_iumqEGb-15" value="Is" style="edgeStyle=orthogonalEdgeStyle;rounded=0;orthogonalLoop=1;jettySize=auto;html=1;exitX=0;exitY=0.5;exitDx=0;exitDy=0;entryX=1;entryY=0.5;entryDx=0;entryDy=0;fontColor=#080808;labelBackgroundColor=none;" parent="1" source="GCB3gknYHZBL_iumqEGb-5" target="GCB3gknYHZBL_iumqEGb-3" edge="1">
          <mxGeometry relative="1" as="geometry" />
        </mxCell>
        <mxCell id="GCB3gknYHZBL_iumqEGb-5" value="ARobotPart" style="rounded=0;whiteSpace=wrap;html=1;fillColor=#fff2cc;strokeColor=#d6b656;fontColor=#080808;labelBackgroundColor=none;" parent="1" vertex="1">
          <mxGeometry x="740" y="210" width="120" height="60" as="geometry" />
        </mxCell>
        <mxCell id="GCB3gknYHZBL_iumqEGb-16" value="Is" style="edgeStyle=orthogonalEdgeStyle;rounded=0;orthogonalLoop=1;jettySize=auto;html=1;exitX=0;exitY=0.5;exitDx=0;exitDy=0;entryX=1;entryY=0.5;entryDx=0;entryDy=0;fontColor=#080808;labelBackgroundColor=none;" parent="1" source="GCB3gknYHZBL_iumqEGb-6" target="GCB3gknYHZBL_iumqEGb-3" edge="1">
          <mxGeometry relative="1" as="geometry" />
        </mxCell>
        <mxCell id="GCB3gknYHZBL_iumqEGb-6" value="AProxyRobotPart" style="rounded=0;whiteSpace=wrap;html=1;fillColor=#fff2cc;strokeColor=#d6b656;fontColor=#080808;labelBackgroundColor=none;" parent="1" vertex="1">
          <mxGeometry x="740" y="300" width="120" height="60" as="geometry" />
        </mxCell>
        <mxCell id="GCB3gknYHZBL_iumqEGb-11" value="Has *" style="edgeStyle=orthogonalEdgeStyle;rounded=0;orthogonalLoop=1;jettySize=auto;html=1;exitX=1;exitY=0.5;exitDx=0;exitDy=0;entryX=0;entryY=0.5;entryDx=0;entryDy=0;fontColor=#080808;labelBackgroundColor=none;" parent="1" source="GCB3gknYHZBL_iumqEGb-7" target="GCB3gknYHZBL_iumqEGb-10" edge="1">
          <mxGeometry relative="1" as="geometry" />
        </mxCell>
        <mxCell id="GCB3gknYHZBL_iumqEGb-7" value="UInventoryComponent" style="rounded=0;whiteSpace=wrap;html=1;fillColor=#d5e8d4;strokeColor=#82b366;fontColor=#080808;labelBackgroundColor=none;" parent="1" vertex="1">
          <mxGeometry x="60" y="-80" width="140" height="60" as="geometry" />
        </mxCell>
        <mxCell id="GCB3gknYHZBL_iumqEGb-13" value="Is" style="edgeStyle=orthogonalEdgeStyle;rounded=0;orthogonalLoop=1;jettySize=auto;html=1;exitX=0;exitY=0.5;exitDx=0;exitDy=0;entryX=1;entryY=0.5;entryDx=0;entryDy=0;fontColor=#080808;labelBackgroundColor=none;" parent="1" source="GCB3gknYHZBL_iumqEGb-8" target="GCB3gknYHZBL_iumqEGb-2" edge="1">
          <mxGeometry relative="1" as="geometry" />
        </mxCell>
        <mxCell id="GCB3gknYHZBL_iumqEGb-8" value="AGunItem" style="rounded=0;whiteSpace=wrap;html=1;fillColor=#fff2cc;strokeColor=#d6b656;fontColor=#080808;labelBackgroundColor=none;" parent="1" vertex="1">
          <mxGeometry x="570" y="110" width="120" height="60" as="geometry" />
        </mxCell>
        <mxCell id="GCB3gknYHZBL_iumqEGb-19" style="edgeStyle=orthogonalEdgeStyle;rounded=0;orthogonalLoop=1;jettySize=auto;html=1;exitX=0;exitY=0.5;exitDx=0;exitDy=0;entryX=1;entryY=0.5;entryDx=0;entryDy=0;fontColor=#080808;labelBackgroundColor=none;" parent="1" source="GCB3gknYHZBL_iumqEGb-9" target="GCB3gknYHZBL_iumqEGb-2" edge="1">
          <mxGeometry relative="1" as="geometry" />
        </mxCell>
        <mxCell id="GCB3gknYHZBL_iumqEGb-9" value="AMagazineItem" style="rounded=0;whiteSpace=wrap;html=1;fillColor=#fff2cc;strokeColor=#d6b656;fontColor=#080808;labelBackgroundColor=none;" parent="1" vertex="1">
          <mxGeometry x="570" y="10" width="120" height="60" as="geometry" />
        </mxCell>
        <mxCell id="GCB3gknYHZBL_iumqEGb-57" value="Ref" style="edgeStyle=orthogonalEdgeStyle;rounded=0;orthogonalLoop=1;jettySize=auto;html=1;entryX=0.5;entryY=0;entryDx=0;entryDy=0;fontColor=#080808;labelBackgroundColor=none;" parent="1" source="GCB3gknYHZBL_iumqEGb-10" target="GCB3gknYHZBL_iumqEGb-2" edge="1">
          <mxGeometry relative="1" as="geometry" />
        </mxCell>
        <mxCell id="GCB3gknYHZBL_iumqEGb-10" value="UInventorySlotComponent" style="rounded=0;whiteSpace=wrap;html=1;fillColor=#d5e8d4;strokeColor=#82b366;fontColor=#080808;labelBackgroundColor=none;" parent="1" vertex="1">
          <mxGeometry x="265" y="-80" width="170" height="60" as="geometry" />
        </mxCell>
        <mxCell id="GCB3gknYHZBL_iumqEGb-38" value="Has" style="edgeStyle=orthogonalEdgeStyle;rounded=0;orthogonalLoop=1;jettySize=auto;html=1;exitX=0.5;exitY=0;exitDx=0;exitDy=0;fontColor=#080808;labelBackgroundColor=none;" parent="1" source="GCB3gknYHZBL_iumqEGb-17" target="GCB3gknYHZBL_iumqEGb-37" edge="1">
          <mxGeometry relative="1" as="geometry" />
        </mxCell>
        <mxCell id="GCB3gknYHZBL_iumqEGb-75" value="Is a" style="edgeStyle=orthogonalEdgeStyle;rounded=0;orthogonalLoop=1;jettySize=auto;html=1;exitX=1;exitY=0.5;exitDx=0;exitDy=0;fontColor=#080808;labelBackgroundColor=none;" parent="1" source="GCB3gknYHZBL_iumqEGb-17" target="GCB3gknYHZBL_iumqEGb-56" edge="1">
          <mxGeometry relative="1" as="geometry" />
        </mxCell>
        <mxCell id="GCB3gknYHZBL_iumqEGb-17" value="ABaseRobot" style="rounded=0;whiteSpace=wrap;html=1;fillColor=#fff2cc;strokeColor=#d6b656;fontColor=#080808;labelBackgroundColor=none;" parent="1" vertex="1">
          <mxGeometry x="-340" y="160" width="120" height="60" as="geometry" />
        </mxCell>
        <mxCell id="GCB3gknYHZBL_iumqEGb-21" style="edgeStyle=orthogonalEdgeStyle;rounded=0;orthogonalLoop=1;jettySize=auto;html=1;exitX=0;exitY=0.5;exitDx=0;exitDy=0;entryX=1;entryY=0.5;entryDx=0;entryDy=0;fontColor=#080808;labelBackgroundColor=none;" parent="1" source="GCB3gknYHZBL_iumqEGb-20" target="GCB3gknYHZBL_iumqEGb-2" edge="1">
          <mxGeometry relative="1" as="geometry" />
        </mxCell>
        <mxCell id="GCB3gknYHZBL_iumqEGb-20" value="AUsableItem" style="rounded=0;whiteSpace=wrap;html=1;fillColor=#fff2cc;strokeColor=#d6b656;fontColor=#080808;labelBackgroundColor=none;" parent="1" vertex="1">
          <mxGeometry x="570" y="-80" width="120" height="60" as="geometry" />
        </mxCell>
        <mxCell id="GCB3gknYHZBL_iumqEGb-22" value="" style="edgeStyle=orthogonalEdgeStyle;rounded=0;orthogonalLoop=1;jettySize=auto;html=1;fontColor=#080808;labelBackgroundColor=none;" parent="1" source="GCB3gknYHZBL_iumqEGb-8" target="GCB3gknYHZBL_iumqEGb-2" edge="1">
          <mxGeometry relative="1" as="geometry">
            <Array as="points">
              <mxPoint x="490" y="140" />
              <mxPoint x="490" y="190" />
            </Array>
          </mxGeometry>
        </mxCell>
        <mxCell id="GCB3gknYHZBL_iumqEGb-24" style="edgeStyle=orthogonalEdgeStyle;rounded=0;orthogonalLoop=1;jettySize=auto;html=1;exitX=0;exitY=0.5;exitDx=0;exitDy=0;fontColor=#080808;labelBackgroundColor=none;" parent="1" source="GCB3gknYHZBL_iumqEGb-23" target="GCB3gknYHZBL_iumqEGb-20" edge="1">
          <mxGeometry relative="1" as="geometry" />
        </mxCell>
        <mxCell id="GCB3gknYHZBL_iumqEGb-23" value="UsableItem" style="rounded=0;whiteSpace=wrap;html=1;fillColor=#dae8fc;strokeColor=#6c8ebf;fontColor=#080808;labelBackgroundColor=none;" parent="1" vertex="1">
          <mxGeometry x="740" y="-80" width="120" height="60" as="geometry" />
        </mxCell>
        <mxCell id="GCB3gknYHZBL_iumqEGb-26" style="edgeStyle=orthogonalEdgeStyle;rounded=0;orthogonalLoop=1;jettySize=auto;html=1;exitX=0;exitY=0.5;exitDx=0;exitDy=0;fontColor=#080808;labelBackgroundColor=none;" parent="1" source="GCB3gknYHZBL_iumqEGb-25" target="GCB3gknYHZBL_iumqEGb-9" edge="1">
          <mxGeometry relative="1" as="geometry" />
        </mxCell>
        <mxCell id="GCB3gknYHZBL_iumqEGb-25" value="MagazineItem" style="rounded=0;whiteSpace=wrap;html=1;fillColor=#dae8fc;strokeColor=#6c8ebf;fontColor=#080808;labelBackgroundColor=none;" parent="1" vertex="1">
          <mxGeometry x="740" y="10" width="120" height="60" as="geometry" />
        </mxCell>
        <mxCell id="GCB3gknYHZBL_iumqEGb-28" style="edgeStyle=orthogonalEdgeStyle;rounded=0;orthogonalLoop=1;jettySize=auto;html=1;exitX=0;exitY=0.5;exitDx=0;exitDy=0;fontColor=#080808;labelBackgroundColor=none;" parent="1" source="GCB3gknYHZBL_iumqEGb-27" target="GCB3gknYHZBL_iumqEGb-8" edge="1">
          <mxGeometry relative="1" as="geometry" />
        </mxCell>
        <mxCell id="GCB3gknYHZBL_iumqEGb-27" value="GunItem" style="rounded=0;whiteSpace=wrap;html=1;fillColor=#dae8fc;strokeColor=#6c8ebf;fontColor=#080808;labelBackgroundColor=none;" parent="1" vertex="1">
          <mxGeometry x="740" y="110" width="120" height="60" as="geometry" />
        </mxCell>
        <mxCell id="GCB3gknYHZBL_iumqEGb-31" style="edgeStyle=orthogonalEdgeStyle;rounded=0;orthogonalLoop=1;jettySize=auto;html=1;exitX=0;exitY=0.5;exitDx=0;exitDy=0;fontColor=#080808;labelBackgroundColor=none;" parent="1" source="GCB3gknYHZBL_iumqEGb-30" target="GCB3gknYHZBL_iumqEGb-5" edge="1">
          <mxGeometry relative="1" as="geometry" />
        </mxCell>
        <mxCell id="GCB3gknYHZBL_iumqEGb-30" value="RobotPart" style="rounded=0;whiteSpace=wrap;html=1;fillColor=#dae8fc;strokeColor=#6c8ebf;fontColor=#080808;labelBackgroundColor=none;" parent="1" vertex="1">
          <mxGeometry x="920" y="210" width="120" height="60" as="geometry" />
        </mxCell>
        <mxCell id="GCB3gknYHZBL_iumqEGb-33" style="edgeStyle=orthogonalEdgeStyle;rounded=0;orthogonalLoop=1;jettySize=auto;html=1;exitX=0;exitY=0.5;exitDx=0;exitDy=0;fontColor=#080808;labelBackgroundColor=none;" parent="1" source="GCB3gknYHZBL_iumqEGb-32" target="GCB3gknYHZBL_iumqEGb-6" edge="1">
          <mxGeometry relative="1" as="geometry" />
        </mxCell>
        <mxCell id="GCB3gknYHZBL_iumqEGb-32" value="ProxyRobotPart" style="rounded=0;whiteSpace=wrap;html=1;fillColor=#dae8fc;strokeColor=#6c8ebf;fontColor=#080808;labelBackgroundColor=none;" parent="1" vertex="1">
          <mxGeometry x="920" y="300" width="120" height="60" as="geometry" />
        </mxCell>
        <mxCell id="GCB3gknYHZBL_iumqEGb-36" value="Is" style="edgeStyle=orthogonalEdgeStyle;rounded=0;orthogonalLoop=1;jettySize=auto;html=1;exitX=1;exitY=0.5;exitDx=0;exitDy=0;fontColor=#080808;labelBackgroundColor=none;" parent="1" source="GCB3gknYHZBL_iumqEGb-35" target="GCB3gknYHZBL_iumqEGb-17" edge="1">
          <mxGeometry relative="1" as="geometry" />
        </mxCell>
        <mxCell id="GCB3gknYHZBL_iumqEGb-40" value="Has" style="edgeStyle=orthogonalEdgeStyle;rounded=0;orthogonalLoop=1;jettySize=auto;html=1;exitX=0.5;exitY=0;exitDx=0;exitDy=0;fontColor=#080808;labelBackgroundColor=none;" parent="1" source="GCB3gknYHZBL_iumqEGb-35" target="GCB3gknYHZBL_iumqEGb-39" edge="1">
          <mxGeometry relative="1" as="geometry" />
        </mxCell>
        <mxCell id="GCB3gknYHZBL_iumqEGb-35" value="AHumanoidRobot" style="rounded=0;whiteSpace=wrap;html=1;fillColor=#fff2cc;strokeColor=#d6b656;fontColor=#080808;labelBackgroundColor=none;" parent="1" vertex="1">
          <mxGeometry x="-530" y="160" width="120" height="60" as="geometry" />
        </mxCell>
        <mxCell id="GCB3gknYHZBL_iumqEGb-37" value="UBaseRobot&lt;br&gt;AnimInstance" style="rounded=0;whiteSpace=wrap;html=1;fillColor=#f5f5f5;fontColor=#080808;strokeColor=#666666;labelBackgroundColor=none;" parent="1" vertex="1">
          <mxGeometry x="-340" width="120" height="60" as="geometry" />
        </mxCell>
        <mxCell id="GCB3gknYHZBL_iumqEGb-41" value="Is" style="edgeStyle=orthogonalEdgeStyle;rounded=0;orthogonalLoop=1;jettySize=auto;html=1;exitX=1;exitY=0.5;exitDx=0;exitDy=0;fontColor=#080808;labelBackgroundColor=none;" parent="1" source="GCB3gknYHZBL_iumqEGb-39" target="GCB3gknYHZBL_iumqEGb-37" edge="1">
          <mxGeometry relative="1" as="geometry" />
        </mxCell>
        <mxCell id="GCB3gknYHZBL_iumqEGb-39" value="UHumanoidRobot&lt;br&gt;AnimInstance" style="rounded=0;whiteSpace=wrap;html=1;fillColor=#f5f5f5;fontColor=#080808;strokeColor=#666666;labelBackgroundColor=none;" parent="1" vertex="1">
          <mxGeometry x="-530" width="120" height="60" as="geometry" />
        </mxCell>
        <mxCell id="GCB3gknYHZBL_iumqEGb-44" value="/Content&lt;br&gt;&lt;div style=&quot;&quot;&gt;&lt;span style=&quot;&quot;&gt;&amp;nbsp; &amp;nbsp;/Models&lt;/span&gt;&lt;/div&gt;&lt;div style=&quot;&quot;&gt;&lt;span style=&quot;&quot;&gt;&amp;nbsp; &amp;nbsp;/Materials&lt;/span&gt;&lt;/div&gt;&lt;div style=&quot;&quot;&gt;&lt;span style=&quot;&quot;&gt;&amp;nbsp; &amp;nbsp;/Blueprints&lt;/span&gt;&lt;/div&gt;&lt;div style=&quot;&quot;&gt;&lt;span style=&quot;&quot;&gt;&amp;nbsp; &amp;nbsp; &amp;nbsp;/Robots&lt;/span&gt;&lt;/div&gt;&lt;div style=&quot;&quot;&gt;&lt;span style=&quot;&quot;&gt;&amp;nbsp; &amp;nbsp; &amp;nbsp; &amp;nbsp; /Common&lt;/span&gt;&lt;/div&gt;&lt;div style=&quot;&quot;&gt;&lt;span style=&quot;&quot;&gt;&lt;span style=&quot;white-space: pre;&quot;&gt;&#x9;&lt;/span&gt;/RobotA&lt;br&gt;&lt;/span&gt;&lt;/div&gt;&lt;div style=&quot;&quot;&gt;&lt;span style=&quot;&quot;&gt;&lt;span style=&quot;white-space: pre;&quot;&gt;&#x9;&lt;/span&gt;&amp;nbsp; &amp;nbsp;/Parts&lt;br&gt;&lt;/span&gt;&lt;/div&gt;&lt;div style=&quot;&quot;&gt;&lt;span style=&quot;&quot;&gt;&amp;nbsp; &amp;nbsp; &amp;nbsp;/Items&lt;/span&gt;&lt;br&gt;&lt;/div&gt;&lt;div style=&quot;&quot;&gt;&lt;span style=&quot;&quot;&gt;&amp;nbsp; &amp;nbsp; &amp;nbsp; &amp;nbsp; /Common&lt;/span&gt;&lt;/div&gt;&lt;div style=&quot;&quot;&gt;&lt;span style=&quot;&quot;&gt;&amp;nbsp; &amp;nbsp; &amp;nbsp; &amp;nbsp; /ItemA&lt;/span&gt;&lt;/div&gt;&lt;div style=&quot;&quot;&gt;&lt;span style=&quot;&quot;&gt;&amp;nbsp; &amp;nbsp; &amp;nbsp;/Components&lt;/span&gt;&lt;/div&gt;&lt;div style=&quot;&quot;&gt;&lt;span style=&quot;&quot;&gt;&amp;nbsp; &amp;nbsp;/Meta&lt;/span&gt;&lt;br&gt;&lt;/div&gt;" style="shape=note;whiteSpace=wrap;html=1;backgroundOutline=1;darkOpacity=0.05;align=left;spacingTop=0;spacingLeft=9;fillColor=#ffe6cc;strokeColor=#d79b00;fontColor=#080808;labelBackgroundColor=none;" parent="1" vertex="1">
          <mxGeometry x="-630" y="-280" width="200" height="200" as="geometry" />
        </mxCell>
        <mxCell id="GCB3gknYHZBL_iumqEGb-121" value="Has" style="edgeStyle=orthogonalEdgeStyle;rounded=0;orthogonalLoop=1;jettySize=auto;html=1;exitX=1;exitY=0.5;exitDx=0;exitDy=0;fontColor=#080808;labelBackgroundColor=none;" parent="1" source="GCB3gknYHZBL_iumqEGb-45" target="GCB3gknYHZBL_iumqEGb-48" edge="1">
          <mxGeometry relative="1" as="geometry" />
        </mxCell>
        <mxCell id="GCB3gknYHZBL_iumqEGb-45" value="AGlobalPlayer&lt;br&gt;Controller" style="rounded=0;whiteSpace=wrap;html=1;fillColor=#fff2cc;strokeColor=#d6b656;fontColor=#080808;labelBackgroundColor=none;" parent="1" vertex="1">
          <mxGeometry x="-1410" y="380" width="120" height="60" as="geometry" />
        </mxCell>
        <mxCell id="GCB3gknYHZBL_iumqEGb-171" value="Has" style="edgeStyle=orthogonalEdgeStyle;rounded=0;orthogonalLoop=1;jettySize=auto;html=1;exitX=1;exitY=0.75;exitDx=0;exitDy=0;fontColor=#080808;labelBackgroundColor=none;" parent="1" source="GCB3gknYHZBL_iumqEGb-48" target="GCB3gknYHZBL_iumqEGb-17" edge="1">
          <mxGeometry relative="1" as="geometry" />
        </mxCell>
        <mxCell id="GCB3gknYHZBL_iumqEGb-48" value="URobotPlayerComponent" style="rounded=0;whiteSpace=wrap;html=1;fillColor=#d5e8d4;strokeColor=#82b366;fontColor=#080808;labelBackgroundColor=none;" parent="1" vertex="1">
          <mxGeometry x="-1230" y="380" width="140" height="60" as="geometry" />
        </mxCell>
        <mxCell id="GCB3gknYHZBL_iumqEGb-51" value="Anims from owning client, effects on server" style="shape=note;whiteSpace=wrap;html=1;backgroundOutline=1;darkOpacity=0.05;align=left;fillColor=#ffe6cc;strokeColor=#d79b00;fontColor=#080808;labelBackgroundColor=none;" parent="1" vertex="1">
          <mxGeometry x="-250" y="110" width="160" height="60" as="geometry" />
        </mxCell>
        <mxCell id="GCB3gknYHZBL_iumqEGb-93" value="Factory of" style="edgeStyle=orthogonalEdgeStyle;rounded=0;orthogonalLoop=1;jettySize=auto;html=1;exitX=0.5;exitY=0;exitDx=0;exitDy=0;entryX=0;entryY=0.75;entryDx=0;entryDy=0;fontColor=#080808;labelBackgroundColor=none;" parent="1" source="GCB3gknYHZBL_iumqEGb-52" target="GCB3gknYHZBL_iumqEGb-62" edge="1">
          <mxGeometry relative="1" as="geometry" />
        </mxCell>
        <mxCell id="GCB3gknYHZBL_iumqEGb-52" value="UProceduralAnimation&lt;br&gt;Component" style="rounded=0;whiteSpace=wrap;html=1;fillColor=#d5e8d4;strokeColor=#82b366;fontColor=#080808;labelBackgroundColor=none;" parent="1" vertex="1">
          <mxGeometry x="-140" y="-80" width="140" height="60" as="geometry" />
        </mxCell>
        <mxCell id="GCB3gknYHZBL_iumqEGb-55" value="Changes in replicated item&#39;s inventory?&lt;br&gt;- All items need to replicate" style="shape=note;whiteSpace=wrap;html=1;backgroundOutline=1;darkOpacity=0.05;fillColor=#f8cecc;strokeColor=#b85450;fontColor=#080808;labelBackgroundColor=none;" parent="1" vertex="1">
          <mxGeometry x="140" y="115" width="190" height="65" as="geometry" />
        </mxCell>
        <mxCell id="GCB3gknYHZBL_iumqEGb-70" value="Has" style="edgeStyle=orthogonalEdgeStyle;rounded=0;orthogonalLoop=1;jettySize=auto;html=1;exitX=0.5;exitY=0;exitDx=0;exitDy=0;fontColor=#080808;labelBackgroundColor=none;" parent="1" source="GCB3gknYHZBL_iumqEGb-56" target="GCB3gknYHZBL_iumqEGb-7" edge="1">
          <mxGeometry relative="1" as="geometry" />
        </mxCell>
        <mxCell id="GCB3gknYHZBL_iumqEGb-71" value="Has" style="edgeStyle=orthogonalEdgeStyle;rounded=0;orthogonalLoop=1;jettySize=auto;html=1;exitX=0.5;exitY=0;exitDx=0;exitDy=0;fontColor=#080808;labelBackgroundColor=none;" parent="1" source="GCB3gknYHZBL_iumqEGb-56" target="GCB3gknYHZBL_iumqEGb-52" edge="1">
          <mxGeometry relative="1" as="geometry" />
        </mxCell>
        <mxCell id="GCB3gknYHZBL_iumqEGb-102" value="Has *" style="edgeStyle=orthogonalEdgeStyle;rounded=0;orthogonalLoop=1;jettySize=auto;html=1;exitX=0.5;exitY=1;exitDx=0;exitDy=0;fontColor=#080808;labelBackgroundColor=none;" parent="1" source="GCB3gknYHZBL_iumqEGb-56" target="GCB3gknYHZBL_iumqEGb-101" edge="1">
          <mxGeometry relative="1" as="geometry">
            <Array as="points">
              <mxPoint x="30" y="270" />
              <mxPoint x="30" y="270" />
            </Array>
          </mxGeometry>
        </mxCell>
        <mxCell id="GCB3gknYHZBL_iumqEGb-162" value="Has *" style="edgeStyle=orthogonalEdgeStyle;rounded=0;orthogonalLoop=1;jettySize=auto;html=1;exitX=0.75;exitY=1;exitDx=0;exitDy=0;entryX=0.5;entryY=0;entryDx=0;entryDy=0;fontColor=#080808;labelBackgroundColor=none;" parent="1" source="GCB3gknYHZBL_iumqEGb-56" target="GCB3gknYHZBL_iumqEGb-117" edge="1">
          <mxGeometry relative="1" as="geometry" />
        </mxCell>
        <mxCell id="GCB3gknYHZBL_iumqEGb-56" value="ASpecializedActor" style="rounded=0;whiteSpace=wrap;html=1;fillColor=#fff2cc;strokeColor=#d6b656;fontColor=#080808;labelBackgroundColor=none;" parent="1" vertex="1">
          <mxGeometry x="-30" y="160" width="120" height="60" as="geometry" />
        </mxCell>
        <mxCell id="GCB3gknYHZBL_iumqEGb-65" value="Run by" style="edgeStyle=orthogonalEdgeStyle;rounded=0;orthogonalLoop=1;jettySize=auto;html=1;exitX=0;exitY=0.5;exitDx=0;exitDy=0;fontColor=#080808;labelBackgroundColor=none;" parent="1" source="GCB3gknYHZBL_iumqEGb-62" target="GCB3gknYHZBL_iumqEGb-37" edge="1">
          <mxGeometry relative="1" as="geometry" />
        </mxCell>
        <mxCell id="GCB3gknYHZBL_iumqEGb-66" value="Has" style="edgeStyle=orthogonalEdgeStyle;rounded=0;orthogonalLoop=1;jettySize=auto;html=1;exitX=0.5;exitY=1;exitDx=0;exitDy=0;fontColor=#080808;labelBackgroundColor=none;" parent="1" source="GCB3gknYHZBL_iumqEGb-62" target="GCB3gknYHZBL_iumqEGb-63" edge="1">
          <mxGeometry relative="1" as="geometry" />
        </mxCell>
        <mxCell id="GCB3gknYHZBL_iumqEGb-68" value="Has *" style="edgeStyle=orthogonalEdgeStyle;rounded=0;orthogonalLoop=1;jettySize=auto;html=1;exitX=1;exitY=0.5;exitDx=0;exitDy=0;fontColor=#080808;labelBackgroundColor=none;" parent="1" source="GCB3gknYHZBL_iumqEGb-62" target="GCB3gknYHZBL_iumqEGb-64" edge="1">
          <mxGeometry relative="1" as="geometry" />
        </mxCell>
        <mxCell id="GCB3gknYHZBL_iumqEGb-62" value="FProceduralAnimation" style="rounded=0;whiteSpace=wrap;html=1;fillColor=#e1d5e7;strokeColor=#9673a6;fontColor=#080808;labelBackgroundColor=none;" parent="1" vertex="1">
          <mxGeometry x="220" y="-370" width="120" height="60" as="geometry" />
        </mxCell>
        <mxCell id="GCB3gknYHZBL_iumqEGb-63" value="FProceduralAnimation&lt;br&gt;Request" style="rounded=0;whiteSpace=wrap;html=1;fillColor=#e1d5e7;strokeColor=#9673a6;fontColor=#080808;labelBackgroundColor=none;" parent="1" vertex="1">
          <mxGeometry x="220" y="-260" width="120" height="60" as="geometry" />
        </mxCell>
        <mxCell id="GCB3gknYHZBL_iumqEGb-64" value="FProceduralAnimation&lt;br&gt;Key" style="rounded=0;whiteSpace=wrap;html=1;fillColor=#e1d5e7;strokeColor=#9673a6;fontColor=#080808;labelBackgroundColor=none;" parent="1" vertex="1">
          <mxGeometry x="425" y="-370" width="120" height="60" as="geometry" />
        </mxCell>
        <mxCell id="GCB3gknYHZBL_iumqEGb-88" style="edgeStyle=orthogonalEdgeStyle;rounded=0;orthogonalLoop=1;jettySize=auto;html=1;exitX=1;exitY=0.5;exitDx=0;exitDy=0;entryX=0;entryY=0.5;entryDx=0;entryDy=0;fontColor=#080808;labelBackgroundColor=none;" parent="1" source="GCB3gknYHZBL_iumqEGb-80" target="GCB3gknYHZBL_iumqEGb-35" edge="1">
          <mxGeometry relative="1" as="geometry" />
        </mxCell>
        <mxCell id="GCB3gknYHZBL_iumqEGb-80" value="HumanoidRobotA" style="rounded=0;whiteSpace=wrap;html=1;fillColor=#dae8fc;strokeColor=#6c8ebf;fontColor=#080808;labelBackgroundColor=none;" parent="1" vertex="1">
          <mxGeometry x="-720" y="110" width="120" height="60" as="geometry" />
        </mxCell>
        <mxCell id="GCB3gknYHZBL_iumqEGb-90" style="edgeStyle=orthogonalEdgeStyle;rounded=0;orthogonalLoop=1;jettySize=auto;html=1;exitX=1;exitY=0.5;exitDx=0;exitDy=0;fontColor=#080808;labelBackgroundColor=none;" parent="1" source="GCB3gknYHZBL_iumqEGb-82" target="GCB3gknYHZBL_iumqEGb-80" edge="1">
          <mxGeometry relative="1" as="geometry" />
        </mxCell>
        <mxCell id="GCB3gknYHZBL_iumqEGb-159" style="edgeStyle=orthogonalEdgeStyle;rounded=0;orthogonalLoop=1;jettySize=auto;html=1;exitX=0;exitY=0.5;exitDx=0;exitDy=0;entryX=1;entryY=0.5;entryDx=0;entryDy=0;fontColor=#080808;labelBackgroundColor=none;" parent="1" source="GCB3gknYHZBL_iumqEGb-82" target="GCB3gknYHZBL_iumqEGb-48" edge="1">
          <mxGeometry relative="1" as="geometry">
            <Array as="points">
              <mxPoint x="-970" y="15" />
              <mxPoint x="-970" y="410" />
            </Array>
          </mxGeometry>
        </mxCell>
        <mxCell id="GCB3gknYHZBL_iumqEGb-82" value="HumanoidRobotA&lt;br&gt;Player" style="rounded=0;whiteSpace=wrap;html=1;fillColor=#dae8fc;strokeColor=#6c8ebf;fontColor=#080808;labelBackgroundColor=none;" parent="1" vertex="1">
          <mxGeometry x="-910" y="-15" width="120" height="60" as="geometry" />
        </mxCell>
        <mxCell id="GCB3gknYHZBL_iumqEGb-89" style="edgeStyle=orthogonalEdgeStyle;rounded=0;orthogonalLoop=1;jettySize=auto;html=1;exitX=1;exitY=0.5;exitDx=0;exitDy=0;fontColor=#080808;labelBackgroundColor=none;" parent="1" source="GCB3gknYHZBL_iumqEGb-85" target="GCB3gknYHZBL_iumqEGb-35" edge="1">
          <mxGeometry relative="1" as="geometry" />
        </mxCell>
        <mxCell id="GCB3gknYHZBL_iumqEGb-85" value="HumanoidRobotB" style="rounded=0;whiteSpace=wrap;html=1;fillColor=#dae8fc;strokeColor=#6c8ebf;fontColor=#080808;labelBackgroundColor=none;" parent="1" vertex="1">
          <mxGeometry x="-720" y="200" width="120" height="60" as="geometry" />
        </mxCell>
        <mxCell id="GCB3gknYHZBL_iumqEGb-91" style="edgeStyle=orthogonalEdgeStyle;rounded=0;orthogonalLoop=1;jettySize=auto;html=1;exitX=1;exitY=0.5;exitDx=0;exitDy=0;entryX=0.5;entryY=1;entryDx=0;entryDy=0;fontColor=#080808;labelBackgroundColor=none;" parent="1" source="GCB3gknYHZBL_iumqEGb-86" target="GCB3gknYHZBL_iumqEGb-85" edge="1">
          <mxGeometry relative="1" as="geometry" />
        </mxCell>
        <mxCell id="GCB3gknYHZBL_iumqEGb-160" style="edgeStyle=orthogonalEdgeStyle;rounded=0;orthogonalLoop=1;jettySize=auto;html=1;exitX=0;exitY=0.5;exitDx=0;exitDy=0;entryX=1;entryY=0.5;entryDx=0;entryDy=0;fontColor=#080808;labelBackgroundColor=none;" parent="1" source="GCB3gknYHZBL_iumqEGb-86" target="GCB3gknYHZBL_iumqEGb-48" edge="1">
          <mxGeometry relative="1" as="geometry">
            <mxPoint x="-1050" y="340" as="targetPoint" />
            <Array as="points">
              <mxPoint x="-970" y="350" />
              <mxPoint x="-970" y="410" />
            </Array>
          </mxGeometry>
        </mxCell>
        <mxCell id="GCB3gknYHZBL_iumqEGb-86" value="HumanoidRobotB&lt;br&gt;Player" style="rounded=0;whiteSpace=wrap;html=1;fillColor=#dae8fc;strokeColor=#6c8ebf;fontColor=#080808;labelBackgroundColor=none;" parent="1" vertex="1">
          <mxGeometry x="-910" y="320" width="120" height="60" as="geometry" />
        </mxCell>
        <mxCell id="GCB3gknYHZBL_iumqEGb-96" value="&amp;nbsp;Health lives on parts" style="shape=note;whiteSpace=wrap;html=1;backgroundOutline=1;darkOpacity=0.05;align=left;fillColor=#ffe6cc;strokeColor=#d79b00;fontColor=#080808;labelBackgroundColor=none;" parent="1" vertex="1">
          <mxGeometry x="700" y="350" width="160" height="30" as="geometry" />
        </mxCell>
        <mxCell id="GCB3gknYHZBL_iumqEGb-98" style="edgeStyle=orthogonalEdgeStyle;rounded=0;orthogonalLoop=1;jettySize=auto;html=1;exitX=1;exitY=0.5;exitDx=0;exitDy=0;startArrow=classic;startFill=1;endArrow=none;endFill=0;fontColor=#080808;labelBackgroundColor=none;" parent="1" source="GCB3gknYHZBL_iumqEGb-97" edge="1">
          <mxGeometry relative="1" as="geometry">
            <mxPoint x="840" y="-230" as="targetPoint" />
          </mxGeometry>
        </mxCell>
        <mxCell id="GCB3gknYHZBL_iumqEGb-99" value="*" style="edgeLabel;html=1;align=center;verticalAlign=middle;resizable=0;points=[];fontColor=#080808;labelBackgroundColor=none;" parent="GCB3gknYHZBL_iumqEGb-98" vertex="1" connectable="0">
          <mxGeometry x="0.8611" y="2" relative="1" as="geometry">
            <mxPoint x="17" y="2" as="offset" />
          </mxGeometry>
        </mxCell>
        <mxCell id="GCB3gknYHZBL_iumqEGb-97" value="FLerped" style="rounded=0;whiteSpace=wrap;html=1;fillColor=#e1d5e7;strokeColor=#9673a6;fontColor=#080808;labelBackgroundColor=none;" parent="1" vertex="1">
          <mxGeometry x="620" y="-260" width="120" height="60" as="geometry" />
        </mxCell>
        <mxCell id="GCB3gknYHZBL_iumqEGb-101" value="FStat" style="rounded=0;whiteSpace=wrap;html=1;fillColor=#e1d5e7;strokeColor=#9673a6;fontColor=#080808;labelBackgroundColor=none;" parent="1" vertex="1">
          <mxGeometry x="-30" y="320" width="120" height="60" as="geometry" />
        </mxCell>
        <mxCell id="GCB3gknYHZBL_iumqEGb-106" style="edgeStyle=orthogonalEdgeStyle;rounded=0;orthogonalLoop=1;jettySize=auto;html=1;exitX=1;exitY=0.5;exitDx=0;exitDy=0;entryX=0.5;entryY=1;entryDx=0;entryDy=0;fontColor=#080808;labelBackgroundColor=none;" parent="1" source="GCB3gknYHZBL_iumqEGb-103" target="GCB3gknYHZBL_iumqEGb-85" edge="1">
          <mxGeometry relative="1" as="geometry" />
        </mxCell>
        <mxCell id="GCB3gknYHZBL_iumqEGb-158" style="edgeStyle=orthogonalEdgeStyle;rounded=0;orthogonalLoop=1;jettySize=auto;html=1;exitX=0;exitY=0.5;exitDx=0;exitDy=0;entryX=1;entryY=0.5;entryDx=0;entryDy=0;fontColor=#080808;labelBackgroundColor=none;" parent="1" source="GCB3gknYHZBL_iumqEGb-103" target="GCB3gknYHZBL_iumqEGb-109" edge="1">
          <mxGeometry relative="1" as="geometry" />
        </mxCell>
        <mxCell id="GCB3gknYHZBL_iumqEGb-103" value="HumanoidRobotB&lt;br&gt;AI" style="rounded=0;whiteSpace=wrap;html=1;fillColor=#dae8fc;strokeColor=#6c8ebf;fontColor=#080808;labelBackgroundColor=none;" parent="1" vertex="1">
          <mxGeometry x="-910" y="250" width="120" height="60" as="geometry" />
        </mxCell>
        <mxCell id="GCB3gknYHZBL_iumqEGb-105" style="edgeStyle=orthogonalEdgeStyle;rounded=0;orthogonalLoop=1;jettySize=auto;html=1;exitX=1;exitY=0.5;exitDx=0;exitDy=0;entryX=0.5;entryY=0;entryDx=0;entryDy=0;fontColor=#080808;labelBackgroundColor=none;" parent="1" source="GCB3gknYHZBL_iumqEGb-104" target="GCB3gknYHZBL_iumqEGb-80" edge="1">
          <mxGeometry relative="1" as="geometry" />
        </mxCell>
        <mxCell id="GCB3gknYHZBL_iumqEGb-156" style="edgeStyle=orthogonalEdgeStyle;rounded=0;orthogonalLoop=1;jettySize=auto;html=1;exitX=0;exitY=0.5;exitDx=0;exitDy=0;entryX=1;entryY=0.5;entryDx=0;entryDy=0;fontColor=#080808;labelBackgroundColor=none;" parent="1" source="GCB3gknYHZBL_iumqEGb-104" target="GCB3gknYHZBL_iumqEGb-109" edge="1">
          <mxGeometry relative="1" as="geometry" />
        </mxCell>
        <mxCell id="GCB3gknYHZBL_iumqEGb-104" value="HumanoidRobotB&lt;br&gt;AI" style="rounded=0;whiteSpace=wrap;html=1;fillColor=#dae8fc;strokeColor=#6c8ebf;fontColor=#080808;labelBackgroundColor=none;" parent="1" vertex="1">
          <mxGeometry x="-910" y="55" width="120" height="60" as="geometry" />
        </mxCell>
        <mxCell id="GCB3gknYHZBL_iumqEGb-111" value="Ref" style="edgeStyle=orthogonalEdgeStyle;rounded=0;orthogonalLoop=1;jettySize=auto;html=1;exitX=0;exitY=0.5;exitDx=0;exitDy=0;fontColor=#080808;labelBackgroundColor=none;" parent="1" source="GCB3gknYHZBL_iumqEGb-107" target="GCB3gknYHZBL_iumqEGb-108" edge="1">
          <mxGeometry relative="1" as="geometry" />
        </mxCell>
        <mxCell id="GCB3gknYHZBL_iumqEGb-107" value="AAIGroupActor" style="rounded=0;whiteSpace=wrap;html=1;fillColor=#ffe6cc;strokeColor=#d79b00;fontColor=#080808;labelBackgroundColor=none;" parent="1" vertex="1">
          <mxGeometry x="-1530" y="120" width="120" height="60" as="geometry" />
        </mxCell>
        <mxCell id="GCB3gknYHZBL_iumqEGb-108" value="AAIMasterActor" style="rounded=0;whiteSpace=wrap;html=1;fillColor=#ffe6cc;strokeColor=#d79b00;fontColor=#080808;labelBackgroundColor=none;" parent="1" vertex="1">
          <mxGeometry x="-1740" y="120" width="120" height="60" as="geometry" />
        </mxCell>
        <mxCell id="GCB3gknYHZBL_iumqEGb-110" value="Ref" style="edgeStyle=orthogonalEdgeStyle;rounded=0;orthogonalLoop=1;jettySize=auto;html=1;exitX=0;exitY=0.25;exitDx=0;exitDy=0;fontColor=#080808;labelBackgroundColor=none;" parent="1" source="GCB3gknYHZBL_iumqEGb-109" target="GCB3gknYHZBL_iumqEGb-107" edge="1">
          <mxGeometry relative="1" as="geometry" />
        </mxCell>
        <mxCell id="GCB3gknYHZBL_iumqEGb-109" value="URobotAIComponent" style="rounded=0;whiteSpace=wrap;html=1;fillColor=#d5e8d4;strokeColor=#82b366;fontColor=#080808;labelBackgroundColor=none;" parent="1" vertex="1">
          <mxGeometry x="-1210" y="160" width="120" height="60" as="geometry" />
        </mxCell>
        <mxCell id="GCB3gknYHZBL_iumqEGb-114" value="These server only" style="shape=note;whiteSpace=wrap;html=1;backgroundOutline=1;darkOpacity=0.05;align=left;fillColor=#ffe6cc;strokeColor=#d79b00;fontColor=#080808;labelBackgroundColor=none;" parent="1" vertex="1">
          <mxGeometry x="-1520" y="90" width="160" height="30" as="geometry" />
        </mxCell>
        <mxCell id="GCB3gknYHZBL_iumqEGb-116" value="This is why serverside everything" style="shape=note;whiteSpace=wrap;html=1;backgroundOutline=1;darkOpacity=0.05;fillColor=#f8cecc;strokeColor=#b85450;fontColor=#080808;labelBackgroundColor=none;" parent="1" vertex="1">
          <mxGeometry x="-1040" y="-50" width="170" height="50" as="geometry" />
        </mxCell>
        <mxCell id="GCB3gknYHZBL_iumqEGb-118" style="edgeStyle=orthogonalEdgeStyle;rounded=0;orthogonalLoop=1;jettySize=auto;html=1;exitX=0;exitY=0.5;exitDx=0;exitDy=0;fontColor=#080808;labelBackgroundColor=none;" parent="1" source="GCB3gknYHZBL_iumqEGb-117" target="GCB3gknYHZBL_iumqEGb-101" edge="1">
          <mxGeometry relative="1" as="geometry" />
        </mxCell>
        <mxCell id="GCB3gknYHZBL_iumqEGb-117" value="FStatModifier" style="rounded=0;whiteSpace=wrap;html=1;fillColor=#e1d5e7;strokeColor=#9673a6;fontColor=#080808;labelBackgroundColor=none;" parent="1" vertex="1">
          <mxGeometry x="150" y="320" width="120" height="60" as="geometry" />
        </mxCell>
        <mxCell id="GCB3gknYHZBL_iumqEGb-120" value="As much as possible arbitrary relation.&lt;br&gt;&lt;br&gt;Any specialized actor can give the set of stat modifications for the actor type in question?" style="shape=note;whiteSpace=wrap;html=1;backgroundOutline=1;darkOpacity=0.05;align=left;fillColor=#ffe6cc;strokeColor=#d79b00;fontColor=#080808;labelBackgroundColor=none;" parent="1" vertex="1">
          <mxGeometry x="50" y="375" width="160" height="105" as="geometry" />
        </mxCell>
        <mxCell id="GCB3gknYHZBL_iumqEGb-129" style="edgeStyle=orthogonalEdgeStyle;rounded=0;orthogonalLoop=1;jettySize=auto;html=1;exitX=0.5;exitY=1;exitDx=0;exitDy=0;fontColor=#080808;labelBackgroundColor=none;" parent="1" source="GCB3gknYHZBL_iumqEGb-125" target="GCB3gknYHZBL_iumqEGb-10" edge="1">
          <mxGeometry relative="1" as="geometry" />
        </mxCell>
        <mxCell id="GCB3gknYHZBL_iumqEGb-125" value="URobotPartSlot" style="rounded=0;whiteSpace=wrap;html=1;fillColor=#d5e8d4;strokeColor=#82b366;fontColor=#080808;labelBackgroundColor=none;" parent="1" vertex="1">
          <mxGeometry x="265" y="-180" width="170" height="60" as="geometry" />
        </mxCell>
        <mxCell id="GCB3gknYHZBL_iumqEGb-128" style="edgeStyle=orthogonalEdgeStyle;rounded=0;orthogonalLoop=1;jettySize=auto;html=1;exitX=0.5;exitY=1;exitDx=0;exitDy=0;fontColor=#080808;labelBackgroundColor=none;" parent="1" source="GCB3gknYHZBL_iumqEGb-126" target="GCB3gknYHZBL_iumqEGb-10" edge="1">
          <mxGeometry relative="1" as="geometry" />
        </mxCell>
        <mxCell id="GCB3gknYHZBL_iumqEGb-126" value="UMagazineWellSlot" style="rounded=0;whiteSpace=wrap;html=1;fillColor=#d5e8d4;strokeColor=#82b366;fontColor=#080808;labelBackgroundColor=none;" parent="1" vertex="1">
          <mxGeometry x="70" y="-180" width="170" height="60" as="geometry" />
        </mxCell>
        <mxCell id="GCB3gknYHZBL_iumqEGb-130" value="*" style="text;html=1;align=center;verticalAlign=middle;resizable=0;points=[];autosize=1;strokeColor=none;fillColor=none;fontColor=#080808;labelBackgroundColor=none;" parent="1" vertex="1">
          <mxGeometry x="965" y="-62" width="30" height="30" as="geometry" />
        </mxCell>
        <mxCell id="GCB3gknYHZBL_iumqEGb-131" style="edgeStyle=orthogonalEdgeStyle;rounded=0;orthogonalLoop=1;jettySize=auto;html=1;exitX=1;exitY=0.5;exitDx=0;exitDy=0;entryX=-0.067;entryY=0.4;entryDx=0;entryDy=0;entryPerimeter=0;startArrow=classic;startFill=1;endArrow=none;endFill=0;fontColor=#080808;labelBackgroundColor=none;" parent="1" source="GCB3gknYHZBL_iumqEGb-23" target="GCB3gknYHZBL_iumqEGb-130" edge="1">
          <mxGeometry relative="1" as="geometry" />
        </mxCell>
        <mxCell id="GCB3gknYHZBL_iumqEGb-132" value="*" style="text;html=1;align=center;verticalAlign=middle;resizable=0;points=[];autosize=1;strokeColor=none;fillColor=none;fontColor=#080808;labelBackgroundColor=none;" parent="1" vertex="1">
          <mxGeometry x="965" y="30" width="30" height="30" as="geometry" />
        </mxCell>
        <mxCell id="GCB3gknYHZBL_iumqEGb-133" style="edgeStyle=orthogonalEdgeStyle;rounded=0;orthogonalLoop=1;jettySize=auto;html=1;exitX=1;exitY=0.5;exitDx=0;exitDy=0;entryX=-0.067;entryY=0.4;entryDx=0;entryDy=0;entryPerimeter=0;startArrow=classic;startFill=1;endArrow=none;endFill=0;fontColor=#080808;labelBackgroundColor=none;" parent="1" target="GCB3gknYHZBL_iumqEGb-132" edge="1">
          <mxGeometry relative="1" as="geometry">
            <mxPoint x="860" y="42" as="sourcePoint" />
          </mxGeometry>
        </mxCell>
        <mxCell id="GCB3gknYHZBL_iumqEGb-134" value="*" style="text;html=1;align=center;verticalAlign=middle;resizable=0;points=[];autosize=1;strokeColor=none;fillColor=none;fontColor=#080808;labelBackgroundColor=none;" parent="1" vertex="1">
          <mxGeometry x="965" y="130" width="30" height="30" as="geometry" />
        </mxCell>
        <mxCell id="GCB3gknYHZBL_iumqEGb-135" style="edgeStyle=orthogonalEdgeStyle;rounded=0;orthogonalLoop=1;jettySize=auto;html=1;exitX=1;exitY=0.5;exitDx=0;exitDy=0;entryX=-0.067;entryY=0.4;entryDx=0;entryDy=0;entryPerimeter=0;startArrow=classic;startFill=1;endArrow=none;endFill=0;fontColor=#080808;labelBackgroundColor=none;" parent="1" target="GCB3gknYHZBL_iumqEGb-134" edge="1">
          <mxGeometry relative="1" as="geometry">
            <mxPoint x="860" y="142" as="sourcePoint" />
          </mxGeometry>
        </mxCell>
        <mxCell id="GCB3gknYHZBL_iumqEGb-136" value="*" style="text;html=1;align=center;verticalAlign=middle;resizable=0;points=[];autosize=1;strokeColor=none;fillColor=none;fontColor=#080808;labelBackgroundColor=none;" parent="1" vertex="1">
          <mxGeometry x="1145" y="230" width="30" height="30" as="geometry" />
        </mxCell>
        <mxCell id="GCB3gknYHZBL_iumqEGb-137" style="edgeStyle=orthogonalEdgeStyle;rounded=0;orthogonalLoop=1;jettySize=auto;html=1;exitX=1;exitY=0.5;exitDx=0;exitDy=0;entryX=-0.067;entryY=0.4;entryDx=0;entryDy=0;entryPerimeter=0;startArrow=classic;startFill=1;endArrow=none;endFill=0;fontColor=#080808;labelBackgroundColor=none;" parent="1" target="GCB3gknYHZBL_iumqEGb-136" edge="1">
          <mxGeometry relative="1" as="geometry">
            <mxPoint x="1040" y="242" as="sourcePoint" />
          </mxGeometry>
        </mxCell>
        <mxCell id="GCB3gknYHZBL_iumqEGb-138" value="*" style="text;html=1;align=center;verticalAlign=middle;resizable=0;points=[];autosize=1;strokeColor=none;fillColor=none;fontColor=#080808;labelBackgroundColor=none;" parent="1" vertex="1">
          <mxGeometry x="1145" y="320" width="30" height="30" as="geometry" />
        </mxCell>
        <mxCell id="GCB3gknYHZBL_iumqEGb-139" style="edgeStyle=orthogonalEdgeStyle;rounded=0;orthogonalLoop=1;jettySize=auto;html=1;exitX=1;exitY=0.5;exitDx=0;exitDy=0;entryX=-0.067;entryY=0.4;entryDx=0;entryDy=0;entryPerimeter=0;startArrow=classic;startFill=1;endArrow=none;endFill=0;fontColor=#080808;labelBackgroundColor=none;" parent="1" target="GCB3gknYHZBL_iumqEGb-138" edge="1">
          <mxGeometry relative="1" as="geometry">
            <mxPoint x="1040" y="332" as="sourcePoint" />
          </mxGeometry>
        </mxCell>
        <mxCell id="GCB3gknYHZBL_iumqEGb-140" value="Needs robot type" style="shape=note;whiteSpace=wrap;html=1;backgroundOutline=1;darkOpacity=0.05;fillColor=#f8cecc;strokeColor=#b85450;fontColor=#080808;labelBackgroundColor=none;" parent="1" vertex="1">
          <mxGeometry x="60" y="-280" width="190" height="30" as="geometry" />
        </mxCell>
        <mxCell id="GCB3gknYHZBL_iumqEGb-142" style="edgeStyle=orthogonalEdgeStyle;rounded=0;orthogonalLoop=1;jettySize=auto;html=1;exitX=1;exitY=0.5;exitDx=0;exitDy=0;entryX=0;entryY=0.75;entryDx=0;entryDy=0;fontColor=#080808;labelBackgroundColor=none;" parent="1" source="GCB3gknYHZBL_iumqEGb-141" target="GCB3gknYHZBL_iumqEGb-109" edge="1">
          <mxGeometry relative="1" as="geometry" />
        </mxCell>
        <mxCell id="GCB3gknYHZBL_iumqEGb-141" value="RobotAIComponent" style="rounded=0;whiteSpace=wrap;html=1;fillColor=#dae8fc;strokeColor=#6c8ebf;fontColor=#080808;labelBackgroundColor=none;" parent="1" vertex="1">
          <mxGeometry x="-1530" y="225" width="120" height="60" as="geometry" />
        </mxCell>
        <mxCell id="GCB3gknYHZBL_iumqEGb-145" value="*" style="text;html=1;align=center;verticalAlign=middle;resizable=0;points=[];autosize=1;strokeColor=none;fillColor=none;fontColor=#080808;labelBackgroundColor=none;" parent="1" vertex="1">
          <mxGeometry x="-1665" y="238" width="30" height="30" as="geometry" />
        </mxCell>
        <mxCell id="GCB3gknYHZBL_iumqEGb-146" style="edgeStyle=orthogonalEdgeStyle;rounded=0;orthogonalLoop=1;jettySize=auto;html=1;exitX=0;exitY=0.5;exitDx=0;exitDy=0;entryX=1.033;entryY=0.567;entryDx=0;entryDy=0;entryPerimeter=0;startArrow=classic;startFill=1;endArrow=none;endFill=0;fontColor=#080808;labelBackgroundColor=none;" parent="1" source="GCB3gknYHZBL_iumqEGb-141" target="GCB3gknYHZBL_iumqEGb-145" edge="1">
          <mxGeometry relative="1" as="geometry" />
        </mxCell>
        <mxCell id="GCB3gknYHZBL_iumqEGb-147" value="*" style="text;html=1;align=center;verticalAlign=middle;resizable=0;points=[];autosize=1;strokeColor=none;fillColor=none;fontColor=#080808;labelBackgroundColor=none;" parent="1" vertex="1">
          <mxGeometry x="570" y="-150" width="30" height="30" as="geometry" />
        </mxCell>
        <mxCell id="GCB3gknYHZBL_iumqEGb-150" style="edgeStyle=orthogonalEdgeStyle;rounded=0;orthogonalLoop=1;jettySize=auto;html=1;exitX=1;exitY=0.5;exitDx=0;exitDy=0;entryX=-0.033;entryY=0.433;entryDx=0;entryDy=0;entryPerimeter=0;startArrow=classic;startFill=1;endArrow=none;endFill=0;fontColor=#080808;labelBackgroundColor=none;" parent="1" source="GCB3gknYHZBL_iumqEGb-2" target="GCB3gknYHZBL_iumqEGb-147" edge="1">
          <mxGeometry relative="1" as="geometry" />
        </mxCell>
        <mxCell id="GCB3gknYHZBL_iumqEGb-151" value="*" style="text;html=1;align=center;verticalAlign=middle;resizable=0;points=[];autosize=1;strokeColor=none;fillColor=none;fontColor=#080808;labelBackgroundColor=none;" parent="1" vertex="1">
          <mxGeometry x="-470" y="270" width="30" height="30" as="geometry" />
        </mxCell>
        <mxCell id="GCB3gknYHZBL_iumqEGb-152" style="edgeStyle=orthogonalEdgeStyle;rounded=0;orthogonalLoop=1;jettySize=auto;html=1;exitX=0;exitY=0.5;exitDx=0;exitDy=0;entryX=1.033;entryY=0.533;entryDx=0;entryDy=0;entryPerimeter=0;startArrow=classic;startFill=1;endArrow=none;endFill=0;fontColor=#080808;labelBackgroundColor=none;" parent="1" source="GCB3gknYHZBL_iumqEGb-17" target="GCB3gknYHZBL_iumqEGb-151" edge="1">
          <mxGeometry relative="1" as="geometry" />
        </mxCell>
        <mxCell id="GCB3gknYHZBL_iumqEGb-161" value="Via map?&lt;br&gt;&lt;br&gt;Needs a key for FStateModifier targeting" style="shape=note;whiteSpace=wrap;html=1;backgroundOutline=1;darkOpacity=0.05;align=left;fillColor=#ffe6cc;strokeColor=#d79b00;fontColor=#080808;labelBackgroundColor=none;" parent="1" vertex="1">
          <mxGeometry x="50" y="220" width="190" height="60" as="geometry" />
        </mxCell>
        <mxCell id="GCB3gknYHZBL_iumqEGb-163" value="UAnchorComponent" style="rounded=0;whiteSpace=wrap;html=1;fillColor=#d5e8d4;strokeColor=#82b366;fontColor=#080808;labelBackgroundColor=none;" parent="1" vertex="1">
          <mxGeometry x="620" y="-330" width="120" height="60" as="geometry" />
        </mxCell>
        <mxCell id="GCB3gknYHZBL_iumqEGb-164" value="Repl keyable" style="shape=note;whiteSpace=wrap;html=1;backgroundOutline=1;darkOpacity=0.05;fillColor=#e1d5e7;strokeColor=#9673a6;fontColor=#080808;labelBackgroundColor=none;" parent="1" vertex="1">
          <mxGeometry x="260" y="-20" width="90" height="40" as="geometry" />
        </mxCell>
        <mxCell id="GCB3gknYHZBL_iumqEGb-165" value="Repl keyable" style="shape=note;whiteSpace=wrap;html=1;backgroundOutline=1;darkOpacity=0.05;fillColor=#e1d5e7;strokeColor=#9673a6;fontColor=#080808;labelBackgroundColor=none;" parent="1" vertex="1">
          <mxGeometry x="620" y="-370" width="90" height="40" as="geometry" />
        </mxCell>
        <mxCell id="GCB3gknYHZBL_iumqEGb-166" value="Repl keyable?" style="shape=note;whiteSpace=wrap;html=1;backgroundOutline=1;darkOpacity=0.05;fillColor=#e1d5e7;strokeColor=#9673a6;fontColor=#080808;labelBackgroundColor=none;" parent="1" vertex="1">
          <mxGeometry x="45" y="285" width="90" height="40" as="geometry" />
        </mxCell>
        <mxCell id="GCB3gknYHZBL_iumqEGb-169" style="edgeStyle=orthogonalEdgeStyle;rounded=0;orthogonalLoop=1;jettySize=auto;html=1;exitX=0.5;exitY=0;exitDx=0;exitDy=0;fontColor=#080808;labelBackgroundColor=none;" parent="1" source="GCB3gknYHZBL_iumqEGb-168" target="GCB3gknYHZBL_iumqEGb-48" edge="1">
          <mxGeometry relative="1" as="geometry" />
        </mxCell>
        <mxCell id="GCB3gknYHZBL_iumqEGb-170" value="Has" style="edgeStyle=orthogonalEdgeStyle;rounded=0;orthogonalLoop=1;jettySize=auto;html=1;exitX=1;exitY=0.5;exitDx=0;exitDy=0;fontColor=#080808;labelBackgroundColor=none;" parent="1" source="GCB3gknYHZBL_iumqEGb-168" target="GCB3gknYHZBL_iumqEGb-35" edge="1">
          <mxGeometry relative="1" as="geometry" />
        </mxCell>
        <mxCell id="GCB3gknYHZBL_iumqEGb-168" value="UHumanoidRobot&lt;br&gt;PlayerComponent" style="rounded=0;whiteSpace=wrap;html=1;fillColor=#d5e8d4;strokeColor=#82b366;fontColor=#080808;labelBackgroundColor=none;" parent="1" vertex="1">
          <mxGeometry x="-1230" y="490" width="140" height="60" as="geometry" />
        </mxCell>
        <mxCell id="GCB3gknYHZBL_iumqEGb-172" value="AProjectileActor" style="rounded=0;whiteSpace=wrap;html=1;fillColor=#fff2cc;strokeColor=#d6b656;fontColor=#080808;labelBackgroundColor=none;" parent="1" vertex="1">
          <mxGeometry x="330" y="400" width="120" height="60" as="geometry" />
        </mxCell>
        <mxCell id="GCB3gknYHZBL_iumqEGb-173" value="Complex replication:&lt;br&gt;- AP spawns immediate&lt;br style=&quot;border-color: var(--border-color);&quot;&gt;- Server spawns real version&lt;br&gt;- SP spawns repl of ^" style="shape=note;whiteSpace=wrap;html=1;backgroundOutline=1;darkOpacity=0.05;align=left;fillColor=#ffe6cc;strokeColor=#d79b00;fontColor=#080808;labelBackgroundColor=none;" parent="1" vertex="1">
          <mxGeometry x="380" y="450" width="160" height="80" as="geometry" />
        </mxCell>
        <mxCell id="GCB3gknYHZBL_iumqEGb-175" value="Melee&lt;br&gt;- AP procs anim&lt;br&gt;- Apply procs hitcheck on server&lt;br&gt;- Hitcheck repl to SPs&lt;br&gt;- SPs proc anim" style="shape=note;whiteSpace=wrap;html=1;backgroundOutline=1;darkOpacity=0.05;align=left;fillColor=#ffe6cc;strokeColor=#d79b00;fontColor=#080808;labelBackgroundColor=none;" parent="1" vertex="1">
          <mxGeometry x="220" y="510" width="160" height="95" as="geometry" />
        </mxCell>
        <mxCell id="GCB3gknYHZBL_iumqEGb-177" value="Core stats on server need to be used to validate AP actions - stamina as cheat backstop" style="shape=note;whiteSpace=wrap;html=1;backgroundOutline=1;darkOpacity=0.05;align=left;fillColor=#ffe6cc;strokeColor=#d79b00;fontColor=#080808;labelBackgroundColor=none;" parent="1" vertex="1">
          <mxGeometry x="-250" y="210" width="160" height="70" as="geometry" />
        </mxCell>
        <mxCell id="jXEEfW3ng9B_X4X49Pk7-1" value="Text" style="text;strokeColor=none;align=center;fillColor=none;html=1;verticalAlign=middle;whiteSpace=wrap;rounded=0;fontColor=#080808;labelBackgroundColor=none;" parent="1" vertex="1">
          <mxGeometry x="-830" y="250" width="60" height="30" as="geometry" />
        </mxCell>
      </root>
    </mxGraphModel>
  </diagram>
</mxfile>
